<mxfile host="app.diagrams.net" modified="2023-05-16T09:05:35.154Z" agent="Mozilla/5.0 (Macintosh; Intel Mac OS X 10_15_7) AppleWebKit/537.36 (KHTML, like Gecko) Chrome/113.0.0.0 Safari/537.36" etag="R6bYlug1CeURRqMxk-Tx" version="21.2.1" type="github">
  <diagram name="第 1 页" id="4NA0tI43TQjYLA2AcLv-">
    <mxGraphModel dx="954" dy="475" grid="1" gridSize="10" guides="1" tooltips="1" connect="1" arrows="1" fold="1" page="1" pageScale="1" pageWidth="827" pageHeight="1169" math="0" shadow="0">
      <root>
        <mxCell id="0" />
        <mxCell id="1" parent="0" />
        <mxCell id="N1dOdaI49jf2gEI_dRZE-3" value="" style="edgeStyle=orthogonalEdgeStyle;rounded=0;orthogonalLoop=1;jettySize=auto;html=1;" edge="1" parent="1" source="N1dOdaI49jf2gEI_dRZE-1" target="N1dOdaI49jf2gEI_dRZE-2">
          <mxGeometry relative="1" as="geometry" />
        </mxCell>
        <mxCell id="N1dOdaI49jf2gEI_dRZE-1" value="浏览/加车/未支付" style="rounded=1;whiteSpace=wrap;html=1;" vertex="1" parent="1">
          <mxGeometry x="29" y="250" width="160" height="60" as="geometry" />
        </mxCell>
        <mxCell id="N1dOdaI49jf2gEI_dRZE-5" style="edgeStyle=orthogonalEdgeStyle;rounded=0;orthogonalLoop=1;jettySize=auto;html=1;exitX=0.5;exitY=1;exitDx=0;exitDy=0;entryX=0.5;entryY=0;entryDx=0;entryDy=0;" edge="1" parent="1" source="N1dOdaI49jf2gEI_dRZE-2" target="N1dOdaI49jf2gEI_dRZE-4">
          <mxGeometry relative="1" as="geometry" />
        </mxCell>
        <mxCell id="N1dOdaI49jf2gEI_dRZE-2" value="离开app" style="rounded=1;whiteSpace=wrap;html=1;" vertex="1" parent="1">
          <mxGeometry x="29" y="380" width="160" height="60" as="geometry" />
        </mxCell>
        <mxCell id="N1dOdaI49jf2gEI_dRZE-9" style="edgeStyle=orthogonalEdgeStyle;rounded=0;orthogonalLoop=1;jettySize=auto;html=1;exitX=1;exitY=0.5;exitDx=0;exitDy=0;entryX=0;entryY=0.5;entryDx=0;entryDy=0;" edge="1" parent="1" source="N1dOdaI49jf2gEI_dRZE-4" target="N1dOdaI49jf2gEI_dRZE-8">
          <mxGeometry relative="1" as="geometry" />
        </mxCell>
        <mxCell id="N1dOdaI49jf2gEI_dRZE-4" value="设备-商店-映射" style="rounded=1;whiteSpace=wrap;html=1;" vertex="1" parent="1">
          <mxGeometry x="29" y="510" width="160" height="60" as="geometry" />
        </mxCell>
        <mxCell id="N1dOdaI49jf2gEI_dRZE-16" style="edgeStyle=orthogonalEdgeStyle;rounded=0;orthogonalLoop=1;jettySize=auto;html=1;exitX=0.5;exitY=1;exitDx=0;exitDy=0;" edge="1" parent="1" source="N1dOdaI49jf2gEI_dRZE-6" target="N1dOdaI49jf2gEI_dRZE-14">
          <mxGeometry relative="1" as="geometry">
            <Array as="points">
              <mxPoint x="639" y="260" />
              <mxPoint x="729" y="260" />
            </Array>
          </mxGeometry>
        </mxCell>
        <mxCell id="N1dOdaI49jf2gEI_dRZE-21" style="edgeStyle=orthogonalEdgeStyle;rounded=0;orthogonalLoop=1;jettySize=auto;html=1;exitX=0.5;exitY=1;exitDx=0;exitDy=0;entryX=0.5;entryY=0;entryDx=0;entryDy=0;" edge="1" parent="1" source="N1dOdaI49jf2gEI_dRZE-6" target="N1dOdaI49jf2gEI_dRZE-17">
          <mxGeometry relative="1" as="geometry">
            <Array as="points">
              <mxPoint x="639" y="260" />
              <mxPoint x="579" y="260" />
            </Array>
          </mxGeometry>
        </mxCell>
        <mxCell id="N1dOdaI49jf2gEI_dRZE-6" value="用户浏览媒体" style="rounded=1;whiteSpace=wrap;html=1;fillColor=#dae8fc;strokeColor=#6c8ebf;" vertex="1" parent="1">
          <mxGeometry x="559" y="130" width="160" height="60" as="geometry" />
        </mxCell>
        <mxCell id="N1dOdaI49jf2gEI_dRZE-22" style="edgeStyle=orthogonalEdgeStyle;rounded=0;orthogonalLoop=1;jettySize=auto;html=1;exitX=0.5;exitY=1;exitDx=0;exitDy=0;entryX=0;entryY=0.5;entryDx=0;entryDy=0;" edge="1" parent="1" source="N1dOdaI49jf2gEI_dRZE-8" target="N1dOdaI49jf2gEI_dRZE-23">
          <mxGeometry relative="1" as="geometry">
            <mxPoint x="549" y="530" as="targetPoint" />
          </mxGeometry>
        </mxCell>
        <mxCell id="N1dOdaI49jf2gEI_dRZE-8" value="" style="whiteSpace=wrap;html=1;aspect=fixed;fillColor=#e1d5e7;strokeColor=#9673a6;" vertex="1" parent="1">
          <mxGeometry x="329" y="310" width="110" height="110" as="geometry" />
        </mxCell>
        <mxCell id="N1dOdaI49jf2gEI_dRZE-10" value="DSP" style="text;html=1;strokeColor=none;fillColor=none;align=center;verticalAlign=middle;whiteSpace=wrap;rounded=0;" vertex="1" parent="1">
          <mxGeometry x="354" y="314" width="60" height="30" as="geometry" />
        </mxCell>
        <mxCell id="N1dOdaI49jf2gEI_dRZE-14" value="普通召回" style="rounded=0;whiteSpace=wrap;html=1;" vertex="1" parent="1">
          <mxGeometry x="679" y="335" width="120" height="60" as="geometry" />
        </mxCell>
        <mxCell id="N1dOdaI49jf2gEI_dRZE-20" style="edgeStyle=orthogonalEdgeStyle;rounded=0;orthogonalLoop=1;jettySize=auto;html=1;exitX=0;exitY=0.5;exitDx=0;exitDy=0;entryX=1;entryY=0.5;entryDx=0;entryDy=0;" edge="1" parent="1" source="N1dOdaI49jf2gEI_dRZE-17" target="N1dOdaI49jf2gEI_dRZE-8">
          <mxGeometry relative="1" as="geometry" />
        </mxCell>
        <mxCell id="N1dOdaI49jf2gEI_dRZE-27" style="edgeStyle=orthogonalEdgeStyle;rounded=0;orthogonalLoop=1;jettySize=auto;html=1;exitX=1;exitY=0.5;exitDx=0;exitDy=0;entryX=0;entryY=0.5;entryDx=0;entryDy=0;" edge="1" parent="1" source="N1dOdaI49jf2gEI_dRZE-17" target="N1dOdaI49jf2gEI_dRZE-14">
          <mxGeometry relative="1" as="geometry" />
        </mxCell>
        <mxCell id="N1dOdaI49jf2gEI_dRZE-17" value="是否重定向人群" style="rhombus;whiteSpace=wrap;html=1;" vertex="1" parent="1">
          <mxGeometry x="519" y="325" width="120" height="80" as="geometry" />
        </mxCell>
        <mxCell id="N1dOdaI49jf2gEI_dRZE-30" style="edgeStyle=orthogonalEdgeStyle;rounded=0;orthogonalLoop=1;jettySize=auto;html=1;exitX=0.5;exitY=1;exitDx=0;exitDy=0;" edge="1" parent="1" source="N1dOdaI49jf2gEI_dRZE-23">
          <mxGeometry relative="1" as="geometry">
            <mxPoint x="579" y="600" as="targetPoint" />
          </mxGeometry>
        </mxCell>
        <mxCell id="N1dOdaI49jf2gEI_dRZE-23" value="特殊标记参竟&lt;br&gt;使用协议CPM/CPS价格" style="rounded=1;whiteSpace=wrap;html=1;" vertex="1" parent="1">
          <mxGeometry x="519" y="480" width="120" height="60" as="geometry" />
        </mxCell>
        <mxCell id="N1dOdaI49jf2gEI_dRZE-28" value="判断是否特殊参竞人群" style="text;html=1;strokeColor=none;fillColor=none;align=center;verticalAlign=middle;whiteSpace=wrap;rounded=0;" vertex="1" parent="1">
          <mxGeometry x="346.5" y="350" width="75" height="30" as="geometry" />
        </mxCell>
        <mxCell id="N1dOdaI49jf2gEI_dRZE-34" value="" style="edgeStyle=orthogonalEdgeStyle;rounded=0;orthogonalLoop=1;jettySize=auto;html=1;" edge="1" parent="1" source="N1dOdaI49jf2gEI_dRZE-31" target="N1dOdaI49jf2gEI_dRZE-33">
          <mxGeometry relative="1" as="geometry" />
        </mxCell>
        <mxCell id="N1dOdaI49jf2gEI_dRZE-31" value="广告优先胜出" style="rounded=1;whiteSpace=wrap;html=1;" vertex="1" parent="1">
          <mxGeometry x="492.5" y="600" width="173" height="60" as="geometry" />
        </mxCell>
        <mxCell id="N1dOdaI49jf2gEI_dRZE-32" value="映射对应物料" style="text;html=1;strokeColor=none;fillColor=none;align=center;verticalAlign=middle;whiteSpace=wrap;rounded=0;" vertex="1" parent="1">
          <mxGeometry x="351" y="386" width="75" height="30" as="geometry" />
        </mxCell>
        <mxCell id="N1dOdaI49jf2gEI_dRZE-33" value="用户看到广告" style="rounded=1;whiteSpace=wrap;html=1;fillColor=#d5e8d4;strokeColor=#82b366;" vertex="1" parent="1">
          <mxGeometry x="492.5" y="740" width="173" height="60" as="geometry" />
        </mxCell>
        <mxCell id="N1dOdaI49jf2gEI_dRZE-36" style="edgeStyle=orthogonalEdgeStyle;rounded=0;orthogonalLoop=1;jettySize=auto;html=1;exitX=0.5;exitY=1;exitDx=0;exitDy=0;entryX=0.5;entryY=0;entryDx=0;entryDy=0;" edge="1" parent="1" source="N1dOdaI49jf2gEI_dRZE-35" target="N1dOdaI49jf2gEI_dRZE-1">
          <mxGeometry relative="1" as="geometry" />
        </mxCell>
        <mxCell id="N1dOdaI49jf2gEI_dRZE-35" value="用户浏览电商网站" style="rounded=1;whiteSpace=wrap;html=1;fillColor=#dae8fc;strokeColor=#6c8ebf;" vertex="1" parent="1">
          <mxGeometry x="29" y="140" width="160" height="60" as="geometry" />
        </mxCell>
      </root>
    </mxGraphModel>
  </diagram>
</mxfile>
